#!OML:ASF E:\emotionWalksFemale\Project 1\Capture day 1\Session 1\Female1.ASF
:FULLY-SPECIFIED
:DEGREES
260
root 8.14501 15.2516 42.1549 179.628 -4.76177 -179.613
lowerback 6.83795 1.85106 1.3965
upperback -2.70409 2.58178 -0.219896
thorax -6.59143 1.19969 -1.33226
lowerneck -7.62151 7.27329 -1.5368
upperneck 32.7085 5.64268 7.58935
head 11.5759 2.1798 3.5339
rclavicle 1.58686e-014 1.14301e-015
rhumerus -45.8317 15.0331 -96.7572
rradius 31.2698
rwrist 17.8939
rhand -8.56385 -55.3753
rfingers 7.12502
rthumb 17.3662 -84.6195
lclavicle 1.58686e-014 1.14301e-015
lhumerus -41.1696 -3.92312 89.173
lradius 38.9636
lwrist -14.2633
lhand -6.52014 -34.8515
lfingers 7.12502
lthumb 19.3323 -5.79249
rfemur -4.33529 16.2765 21.3295
rtibia 24.2387
rfoot -21.6778 -28.8131
rtoes 2.48621
lfemur -8.54132 -24.1793 -24.0713
ltibia 27.107
lfoot -22.9522 18.8297
ltoes -23.4677
261
root 8.1383 15.2512 42.1563 179.62 -4.68334 -179.619
lowerback 6.85185 1.84846 1.32135
upperback -2.6602 2.57244 -0.21104
thorax -6.55682 1.19956 -1.27935
lowerneck -7.64278 7.0062 -1.62331
upperneck 32.8319 5.25714 7.46571
head 11.6541 1.96257 3.46521
rclavicle 2.0217e-014 1.09332e-015
rhumerus -45.7816 14.9464 -96.6436
rradius 31.3
rwrist 17.9702
rhand -8.49121 -55.4957
rfingers 7.12502
rthumb 17.4362 -84.7337
lclavicle 2.0217e-014 1.09332e-015
lhumerus -41.1267 -4.10806 89.2313
lradius 39.1813
lwrist -13.6849
lhand -4.52034 -34.5664
lfingers 7.12502
lthumb 21.2542 -5.71171
rfemur -4.32892 16.4476 21.3175
rtibia 24.2266
rfoot -21.6027 -28.9168
rtoes 2.28571
lfemur -8.51085 -24.1817 -24.1084
ltibia 27.0843
lfoot -22.7575 19.0525
ltoes -24.4714
262
root 8.13132 15.2503 42.1554 179.589 -4.6158 -179.567
lowerback 6.83796 1.85699 1.35059
upperback -2.59674 2.58578 -0.231394
thorax -6.47904 1.20632 -1.3165
lowerneck -7.70007 6.66186 -1.90187
upperneck 32.9723 4.68414 7.65778
head 11.7378 1.67127 3.52756
rclavicle 1.64339e-014 2.73329e-015
rhumerus -45.7075 14.8793 -96.6587
rradius 31.2912
rwrist 17.9236
rhand -8.61808 -55.8725
rfingers 7.12502
rthumb 17.314 -85.1212
lclavicle 1.64339e-014 2.73329e-015
lhumerus -41.0809 -4.41015 89.3698
lradius 39.1668
lwrist -13.714
lhand -4.29652 -34.0607
lfingers 7.12502
lthumb 21.4692 -5.23038
rfemur -4.27938 16.54 21.3653
rtibia 24.1805
rfoot -21.5322 -28.8531
rtoes 2.12657
lfemur -8.4611 -23.9803 -24.0783
ltibia 27.0703
lfoot -22.6464 18.8553
ltoes -24.2075
263
root 8.12592 15.2504 42.1519 179.591 -4.5359 -179.51
lowerback 6.78696 1.84728 1.28297
upperback -2.57299 2.56735 -0.203808
thorax -6.42934 1.20155 -1.24509
lowerneck -7.6673 6.41967 -2.09819
upperneck 33.1111 4.26195 7.77382
head 11.8019 1.44652 3.55997
rclavicle -4.84087e-014 5.76476e-015
rhumerus -45.6921 14.9955 -96.7047
rradius 31.3241
rwrist 17.7656
rhand -8.42403 -56.4147
rfingers 7.12502
rthumb 17.5008 -85.647
lclavicle -4.84087e-014 5.76476e-015
lhumerus -40.9599 -4.3582 89.4075
lradius 39.1576
lwrist -13.3132
lhand -3.14018 -33.7654
lfingers 7.12502
lthumb 22.5794 -5.06589
rfemur -4.24938 16.6153 21.4098
rtibia 24.1103
rfoot -21.4302 -28.8978
rtoes 1.82435
lfemur -8.47177 -23.6251 -24.0185
ltibia 27.0938
lfoot -22.7435 18.5035
ltoes -24.7968
264
root 8.12107 15.2501 42.1504 179.591 -4.43128 -179.456
lowerback 6.82015 1.82591 1.20319
upperback -2.58107 2.53507 -0.148615
thorax -6.46375 1.18964 -1.14051
lowerneck -7.48965 6.20642 -2.05421
upperneck 33.1037 3.99223 7.4796
head 11.7918 1.27941 3.40324
rclavicle 4.08301e-014 2.83268e-015
rhumerus -45.6971 15.2813 -96.7619
rradius 31.2765
rwrist 17.6341
rhand -8.28254 -56.4968
rfingers 7.12502
rthumb 17.637 -85.7168
lclavicle 4.08301e-014 2.83268e-015
lhumerus -40.9539 -4.31687 89.4842
lradius 38.9421
lwrist -13.8744
lhand -4.15011 -34.1563
lfingers 7.12502
lthumb 21.6098 -5.34207
rfemur -4.2346 16.7322 21.4594
rtibia 24.0703
rfoot -21.2225 -29.0309
rtoes 1.71081
lfemur -8.48161 -23.4342 -23.9732
ltibia 27.1106
lfoot -22.6943 18.5187
ltoes -25.5657
